REM DIRINDEX 1\2,1\3,1\4,1\5
REM DIRNAME cjc006,folder01,folder02,folder03,folder04
TITLE ""
FILE "No03274.mp3" MP3
  TRACK 01 AUDIO
    TITLE "3:cjc006_04533"
    INDEX 01 00:00:00
  TRACK 02 AUDIO
    TITLE "0:"
    INDEX 01 00:04:27
  TRACK 03 AUDIO
    TITLE "5:cjc006_04534"
    INDEX 01 00:05:05
  TRACK 04 AUDIO
    TITLE "0:"
    INDEX 01 00:06:04
  TRACK 05 AUDIO
    TITLE "4:cjc006_04535"
    INDEX 01 00:06:57
  TRACK 06 AUDIO
    TITLE "0:"
    INDEX 01 00:11:50
